<svg width="1740" height="369" viewBox="0 0 1740 369" fill="none" xmlns="http://www.w3.org/2000/svg">
<path fill-rule="evenodd" clip-rule="evenodd" d="M7.39152 125.046C6.28558e-07 138.546 0 154.831 0 187.402V209.052C0 264.571 1.25712e-06 292.332 16.6789 309.579C33.3579 326.829 60.2022 326.829 113.891 326.829H170.836C224.524 326.829 251.37 326.829 268.048 309.579C284.727 292.332 284.727 264.571 284.727 209.052V187.402C284.727 154.831 284.727 138.546 277.336 125.046C269.945 111.545 256.441 103.166 229.433 86.4088L200.961 68.7422C172.411 51.0283 158.136 42.1714 142.364 42.1714C126.591 42.1714 112.316 51.0283 83.7672 68.7422L55.2945 86.409C28.2869 103.166 14.783 111.545 7.39152 125.046ZM106.012 232.856C101.275 229.345 94.5883 230.338 91.0768 235.075C87.5653 239.812 88.559 246.497 93.2965 250.007C107.14 260.266 124.07 266.339 142.364 266.339C160.657 266.339 177.588 260.266 191.431 250.007C196.169 246.497 197.162 239.812 193.65 235.075C190.14 230.338 183.453 229.345 178.715 232.856C168.344 240.539 155.83 244.99 142.364 244.99C128.897 244.99 116.383 240.539 106.012 232.856Z" fill="white"/>
<path d="M483.322 135.567C482.47 126.973 478.813 120.297 472.349 115.538C465.886 110.78 457.115 108.401 446.036 108.401C438.507 108.401 432.151 109.466 426.966 111.597C421.781 113.656 417.804 116.533 415.034 120.226C412.335 123.919 410.986 128.109 410.986 132.797C410.844 136.703 411.661 140.112 413.436 143.024C415.283 145.936 417.804 148.457 421 150.588C424.196 152.648 427.889 154.459 432.08 156.021C436.27 157.513 440.744 158.791 445.503 159.857L465.105 164.544C474.622 166.675 483.358 169.516 491.312 173.067C499.267 176.618 506.156 180.986 511.98 186.17C517.804 191.355 522.314 197.463 525.51 204.494C528.777 211.526 530.446 219.587 530.517 228.678C530.446 242.03 527.037 253.607 520.29 263.408C513.614 273.138 503.955 280.702 491.312 286.099C478.741 291.426 463.578 294.089 445.822 294.089C428.209 294.089 412.868 291.391 399.8 285.993C386.803 280.595 376.646 272.605 369.331 262.023C362.087 251.369 358.287 238.195 357.932 222.499H402.57C403.067 229.814 405.162 235.922 408.855 240.822C412.619 245.652 417.626 249.31 423.876 251.795C430.197 254.21 437.335 255.418 445.29 255.418C453.102 255.418 459.885 254.281 465.638 252.009C471.462 249.736 475.972 246.575 479.168 242.527C482.364 238.479 483.962 233.827 483.962 228.571C483.962 223.67 482.506 219.551 479.594 216.213C476.753 212.875 472.563 210.034 467.023 207.69C461.554 205.347 454.842 203.216 446.888 201.298L423.131 195.332C404.736 190.858 390.212 183.862 379.558 174.345C368.905 164.828 363.614 152.009 363.685 135.886C363.614 122.676 367.129 111.135 374.232 101.263C381.405 91.3906 391.241 83.6847 403.741 78.1449C416.241 72.6051 430.446 69.8352 446.355 69.8352C462.548 69.8352 476.682 72.6051 488.756 78.1449C500.901 83.6847 510.347 91.3906 517.094 101.263C523.841 111.135 527.321 122.57 527.534 135.567H483.322ZM647.731 127.364V161.455H549.187V127.364H647.731ZM571.559 88.1591H616.943V240.716C616.943 244.906 617.582 248.173 618.86 250.517C620.139 252.79 621.914 254.388 624.187 255.311C626.531 256.234 629.23 256.696 632.284 256.696C634.414 256.696 636.545 256.518 638.676 256.163C640.806 255.737 642.44 255.418 643.576 255.205L650.714 288.976C648.441 289.686 645.245 290.503 641.126 291.426C637.007 292.42 632 293.024 626.105 293.237C615.167 293.663 605.579 292.207 597.341 288.869C589.173 285.531 582.816 280.347 578.271 273.315C573.725 266.284 571.488 257.406 571.559 246.682V88.1591ZM723.956 294.089C713.516 294.089 704.212 292.278 696.044 288.656C687.877 284.963 681.414 279.53 676.655 272.357C671.968 265.112 669.624 256.092 669.624 245.297C669.624 236.206 671.293 228.571 674.631 222.392C677.969 216.213 682.515 211.241 688.267 207.477C694.02 203.713 700.554 200.872 707.87 198.955C715.256 197.037 722.998 195.688 731.094 194.906C740.611 193.912 748.282 192.989 754.105 192.136C759.929 191.213 764.155 189.864 766.783 188.088C769.411 186.312 770.725 183.685 770.725 180.205V179.565C770.725 172.818 768.594 167.598 764.333 163.905C760.142 160.212 754.176 158.365 746.435 158.365C738.267 158.365 731.769 160.176 726.939 163.798C722.11 167.349 718.914 171.824 717.351 177.222L675.377 173.812C677.507 163.869 681.698 155.276 687.948 148.031C694.198 140.716 702.259 135.105 712.131 131.199C722.074 127.222 733.58 125.233 746.648 125.233C755.739 125.233 764.439 126.298 772.749 128.429C781.13 130.56 788.551 133.862 795.015 138.337C801.549 142.811 806.698 148.564 810.462 155.595C814.226 162.555 816.108 170.901 816.108 180.631V291H773.069V268.308H771.79C769.162 273.422 765.647 277.932 761.243 281.838C756.84 285.673 751.549 288.692 745.37 290.893C739.191 293.024 732.053 294.089 723.956 294.089ZM736.953 262.768C743.63 262.768 749.525 261.455 754.638 258.827C759.752 256.128 763.765 252.506 766.676 247.96C769.588 243.415 771.044 238.266 771.044 232.513V215.148C769.624 216.071 767.671 216.923 765.185 217.705C762.77 218.415 760.036 219.089 756.982 219.729C753.928 220.297 750.874 220.83 747.82 221.327C744.766 221.753 741.996 222.143 739.51 222.499C734.184 223.28 729.532 224.523 725.554 226.227C721.577 227.932 718.488 230.24 716.286 233.152C714.084 235.993 712.983 239.544 712.983 243.805C712.983 249.984 715.221 254.707 719.695 257.974C724.24 261.17 729.993 262.768 736.953 262.768ZM873.477 352.364C867.724 352.364 862.326 351.902 857.284 350.979C852.312 350.126 848.193 349.026 844.926 347.676L855.153 313.798C860.48 315.432 865.274 316.32 869.535 316.462C873.868 316.604 877.596 315.609 880.721 313.479C883.917 311.348 886.51 307.726 888.498 302.612L891.162 295.688L832.461 127.364H880.189L914.066 247.534H915.771L949.968 127.364H998.015L934.414 308.685C931.36 317.491 927.206 325.162 921.95 331.696C916.765 338.301 910.196 343.379 902.241 346.93C894.287 350.553 884.699 352.364 873.477 352.364ZM1068.22 72.8182V291H1022.09V72.8182H1068.22ZM1150.71 196.398V291H1105.32V127.364H1148.57V156.234H1150.49C1154.11 146.717 1160.19 139.189 1168.71 133.649C1177.23 128.038 1187.57 125.233 1199.71 125.233C1211.07 125.233 1220.98 127.719 1229.43 132.69C1237.89 137.662 1244.46 144.764 1249.14 153.997C1253.83 163.159 1256.17 174.097 1256.17 186.81V291H1210.79V194.906C1210.86 184.892 1208.3 177.08 1203.12 171.469C1197.94 165.787 1190.8 162.946 1181.71 162.946C1175.6 162.946 1170.2 164.26 1165.51 166.888C1160.9 169.516 1157.27 173.351 1154.65 178.393C1152.09 183.365 1150.78 189.366 1150.71 196.398ZM1337.33 196.398V291H1291.94V127.364H1335.2V156.234H1337.11C1340.74 146.717 1346.81 139.189 1355.33 133.649C1363.85 128.038 1374.19 125.233 1386.33 125.233C1397.7 125.233 1407.6 127.719 1416.06 132.69C1424.51 137.662 1431.08 144.764 1435.76 153.997C1440.45 163.159 1442.8 174.097 1442.8 186.81V291H1397.41V194.906C1397.48 184.892 1394.93 177.08 1389.74 171.469C1384.56 165.787 1377.42 162.946 1368.33 162.946C1362.22 162.946 1356.82 164.26 1352.13 166.888C1347.52 169.516 1343.9 173.351 1341.27 178.393C1338.71 183.365 1337.4 189.366 1337.33 196.398Z" fill="white"/>
</svg>
